<?xml version="1.0" standalone="no"?><!DOCTYPE svg PUBLIC "-//W3C//DTD SVG 1.1//EN" "http://www.w3.org/Graphics/SVG/1.1/DTD/svg11.dtd"><svg t="1545238999940" class="icon" style="" viewBox="0 0 1024 1024" version="1.1" xmlns="http://www.w3.org/2000/svg" p-id="1337" xmlns:xlink="http://www.w3.org/1999/xlink" width="21" height="21"><defs><style type="text/css"></style></defs><path d="M127.52 398.848c39.744-10.08 45.088-65.888 43.328-110.72-1.76-44.8-36.896-73.696-68.48-72.416C59.072 217.44 32.224 254.88 33.984 299.68 44.352 372.256 98.272 406.24 127.52 398.848zM177.792 505.632c0 0-10.72-31.072-28.768-50.752-3.392-3.648 20.896 109.312 18.592 104.544-26.368-55.584-65.792-112.576-77.312-119.04-11.52-6.496-23.872-10.848-36.544-11.36-17.184 8-41.92 31.424-49.28 77.248C2.08 578.752 0 651.264 0 799.232l97.344 0 110.944-172.736C193.888 549.152 188.608 547.392 177.792 505.632zM896.48 398.848c29.216 7.424 83.168-26.592 93.504-99.168 1.76-44.8-25.056-82.24-68.352-83.968-31.584-1.248-66.72 27.616-68.48 72.416C851.392 332.928 856.736 388.736 896.48 398.848zM1019.52 506.24c-7.392-45.792-32.096-69.248-49.248-77.248-12.704 0.544-25.056 4.896-36.576 11.36-11.552 6.464-50.944 63.456-77.312 119.04-2.272 4.768 22.016-108.224 18.592-104.544-18.08 19.68-28.768 50.752-28.768 50.752-10.784 41.76-16.096 43.52-30.528 120.864l110.976 172.736L1024 799.2C1024 651.264 1021.92 578.752 1019.52 506.24zM399.04 552c2.272-41.952 13.824-101.984 19.264-104.352l0.128-0.032 0 124.992 194.56 0 0-113.856c0.448 0.704 0.864 1.376 1.312 2.112 8.288 13.088 16.96 26.336 24.928 37.28 4.032 5.504 7.776 10.368 11.808 14.88 2.08 2.272 4.128 4.448 7.008 6.848 1.44 1.184 3.072 2.464 5.248 3.84 2.208 1.344 4.992 2.912 9.344 4.192 3.68 1.056 7.008 1.408 9.92 1.408 7.776-0.128 12.32-1.984 16.032-3.456 3.456-1.504 6.08-3.04 8.576-4.64 4.608-2.976 8.64-6.144 12.8-9.632 7.2-6.112 14.528-13.184 21.856-20.608 21.856-22.112 43.264-47.136 43.52-47.456 11.68-13.632 10.176-34.24-3.392-46.016-13.536-11.776-33.984-10.24-45.664 3.424l-0.16 0.16c-1.632 1.952-17.408 20.192-33.952 37.44-5.088 5.312-10.24 10.464-15.008 14.976-2.848-4.128-5.952-8.704-9.056-13.504-9.312-14.208-19.168-30.24-26.656-42.624-3.744-6.176-6.912-11.488-9.088-15.2-1.088-1.856-1.984-3.328-2.56-4.352-0.576-0.992-0.896-1.504-0.896-1.504-1.6-2.784-3.648-5.088-5.856-7.168-3.008-4.896-13.632-11.232-45.888-20.48-8.32-2.688-15.584-4.832-22.432-6.208l0 0.032-0.096-0.032c-1.344 16-6.944 54.464-29.536 101.536-3.52-30.976-8.96-58.944-9.536-61.824l8.224-19.456-13.376-12.768-9.504 0-13.376 12.768 8.224 19.456c-0.544 2.88-6.016 30.848-9.504 61.824-22.624-47.072-28.192-85.536-29.536-101.536l-0.128 0.032 0-0.032c-6.848 1.376-13.152 3.648-18.656 6.88-20.032 6.592-48.256 16.64-64.448 25.6-7.904 8.16-36.192 47.456-45.824 173.44-0.448 7.04-0.544 15.392-0.48 24.192l61.216 0C398.56 565.696 398.72 558.784 399.04 552zM447.424 264.096c9.6 35.584 32.384 67.808 69.28 67.808 37.088 0 59.904-32.576 69.472-68.416 10.432-4.352 16.896-19.68 15.52-31.136-0.864-7.392-4.896-11.424-10.56-13.312-2.272-44.16-31.072-79.104-74.464-79.104-43.168 0-71.968 34.624-74.464 78.496-6.688 1.536-11.552 5.664-12.48 13.888C428.256 244.544 435.744 261.056 447.424 264.096zM731.2 588.416c1.952 2.176 4.064 4.576 6.368 7.616l139.936 233.216c0.128 1.952-0.096 3.392-0.32 4.224L147.52 832.864C147.328 832 147.2 830.688 147.328 828.928l141.984-233.76c1.536-2.528 3.104-4.736 4.768-6.752L262.272 588.416l-159.296 250.464 0 44.16c0.768 0.128 1.472 0.32 2.272 0.32l814.016 0.672c0.608 0 1.12-0.16 1.696-0.224l0-46.112-156.704-249.248L731.2 588.448z" p-id="1338" fill="#1296db"></path></svg>