<?xml version="1.0" standalone="no"?><!DOCTYPE svg PUBLIC "-//W3C//DTD SVG 1.1//EN" "http://www.w3.org/Graphics/SVG/1.1/DTD/svg11.dtd"><svg t="1545238820116" class="icon" style="" viewBox="0 0 1024 1024" version="1.1" xmlns="http://www.w3.org/2000/svg" p-id="1569" xmlns:xlink="http://www.w3.org/1999/xlink" width="21" height="21"><defs><style type="text/css"></style></defs><path d="M341.333333 170.666667h341.333334V128H341.333333v42.666667z m-42.666666-42.709334C298.666667 104.405333 317.824 85.333333 341.12 85.333333h341.76C706.304 85.333333 725.333333 104.490667 725.333333 127.957333v42.752A42.645333 42.645333 0 0 1 682.88 213.333333H341.12C317.696 213.333333 298.666667 194.176 298.666667 170.709333V127.957333zM512 746.666667c-129.6 0-234.666667-105.066667-234.666667-234.666667s105.066667-234.666667 234.666667-234.666667 234.666667 105.066667 234.666667 234.666667-105.066667 234.666667-234.666667 234.666667z m0-42.666667a192 192 0 1 0 0-384 192 192 0 0 0 0 384z m21.333333-320v115.925333l96.298667 57.792a21.333333 21.333333 0 0 1-21.930667 36.565334l-106.666666-64A21.333333 21.333333 0 0 1 490.666667 512v-128a21.333333 21.333333 0 0 1 42.666666 0zM236.16 128v42.666667S170.666667 170.688 170.666667 170.773333V896s682.666667 0.042667 682.666666-0.106667C853.333333 895.893333 853.333333 170.666667 853.205333 170.666667h-63.296V128h63.296C876.842667 128 896 147.072 896 170.773333v725.12C896 919.509333 877.013333 938.666667 853.333333 938.666667H170.666667a42.666667 42.666667 0 0 1-42.666667-42.773334V170.773333C128 147.157333 147.114667 128 170.752 128h65.408z" fill="#1296db" p-id="1570"></path></svg>