<?xml version="1.0" standalone="no"?><!DOCTYPE svg PUBLIC "-//W3C//DTD SVG 1.1//EN" "http://www.w3.org/Graphics/SVG/1.1/DTD/svg11.dtd"><svg t="1545238833475" class="icon" style="" viewBox="0 0 1024 1024" version="1.1" xmlns="http://www.w3.org/2000/svg" p-id="1790" xmlns:xlink="http://www.w3.org/1999/xlink" width="21" height="21"><defs><style type="text/css"></style></defs><path d="M43.047925 318.945371l-0.217999 0.332999 453.813104 262.014483a29.879941 29.879941 0 0 0 14.946971 4.019992c5.392989 0 10.686979-1.451997 15.26397-4.183991l450.339111-259.994487c14.252972-8.253984 19.133962-26.569948 10.874979-40.82792-2.681995-4.634991-6.561987-8.462983-11.163978-11.039978L528.287968 9.121982a29.850941 29.850941 0 0 0-14.945971-4.025992 29.859941 29.859941 0 0 0-16.493967 4.94499L46.870918 269.829468c-14.257972 8.189984-19.193962 26.457948-11.001979 40.721919a29.784941 29.784941 0 0 0 7.179986 8.392984zM513.234998 69.459863l389.320232 225.769555-390.939229 225.711554-390.179231-225.279555L513.234998 69.459863z m463.669085 419.147173l-84.437834-48.964903-59.686882 34.459932 69.780863 40.46992L511.616001 740.27854l-390.179231-225.272556 69.929862-40.37392-59.655882-34.442932-84.838832 48.985903c-14.257972 8.189984-19.195962 26.456948-11.001979 40.71592a29.803941 29.803941 0 0 0 7.328986 8.517983l-0.19 0.317999 453.638105 261.909484a29.875941 29.875941 0 0 0 30.209941-0.16L977.193082 540.478934c14.253972-8.257984 19.134962-26.571948 10.875979-40.82592-2.688995-4.636991-6.563987-8.466983-11.165978-11.044978z m0 219.343567l-84.089834-48.766903-59.681882 34.457932 69.427863 40.26992-390.944229 225.711555-390.179231-225.274556 69.581863-40.17992-59.653882-34.436932-84.492833 48.785903c-14.257972 8.188984-19.193962 26.457948-11.001979 40.71692a29.742941 29.742941 0 0 0 7.233986 8.436983l-0.207 0.329 453.747105 261.974483a29.895941 29.895941 0 0 0 14.946971 4.024992 29.875941 29.875941 0 0 0 15.26397-4.178992l450.339111-259.999487c14.252972-8.259984 19.133962-26.577948 10.874979-40.825919-2.681995-4.636991-6.557987-8.467983-11.164978-11.044979z" p-id="1791" fill="#1296db"></path></svg>