<?xml version="1.0" standalone="no"?><!DOCTYPE svg PUBLIC "-//W3C//DTD SVG 1.1//EN" "http://www.w3.org/Graphics/SVG/1.1/DTD/svg11.dtd"><svg t="1545238897751" class="icon" style="" viewBox="0 0 1024 1024" version="1.1" xmlns="http://www.w3.org/2000/svg" p-id="786" xmlns:xlink="http://www.w3.org/1999/xlink" width="21" height="21"><defs><style type="text/css"></style></defs><path d="M210.3 838.67h603.4c23.8 0 43.1 20 43.1 44.66 0 24.67-19.3 44.66-43.1 44.66H210.3c-23.8 0-43.1-20-43.1-44.66-0.01-24.66 19.29-44.66 43.1-44.66zM927.35 371.63l-64.47 394.12c-3.51 21.48-21.47 37.2-42.49 37.2H203.61c-21.02 0-38.98-15.72-42.49-37.2l-64.46-394.1c-6.15-37.61 33.1-65.39 64.67-45.76l174.4 108.43 143.06-312.78c15.7-34.32 62.94-33.96 78.16 0.58l136.17 309.15L862.7 325.86c31.56-19.61 70.8 8.16 64.65 45.77z" p-id="787" fill="#1296db"></path></svg>