<?xml version="1.0" standalone="no"?><!DOCTYPE svg PUBLIC "-//W3C//DTD SVG 1.1//EN" "http://www.w3.org/Graphics/SVG/1.1/DTD/svg11.dtd"><svg t="1545238979877" class="icon" style="" viewBox="0 0 1024 1024" version="1.1" xmlns="http://www.w3.org/2000/svg" p-id="1116" xmlns:xlink="http://www.w3.org/1999/xlink" width="21" height="21"><defs><style type="text/css"></style></defs><path d="M340.908832 560.994877c-45.223994 38.768979-95.018074 69.427232-147.390885 97.674577 1.739621 1.085728 2.615571 1.715061 3.561106 2.211365 82.004689 42.99421 164.526147 84.925205 249.882164 120.998795 17.110703 7.231705 34.293037 14.297634 51.520397 21.24486 32.583093 13.141298 64.448848 10.313903 96.081289-3.897773 57.125045-25.665543 104.256482-64.331167 145.694243-110.605074 56.072063-62.61406 100.250238-132.484384 129.228223-211.620745 12.406564-33.878598 22.323425-68.448952 27.079752-104.299461 1.636267-12.326746 2.355651-24.783453 3.255137-37.19718 0.786922-10.837836-1.402953-13.753235-11.932774-16.71059-42.467207-11.926634-84.939531-23.843034-127.417995-35.737946-73.138764-20.48045-146.281621-40.941458-219.424478-61.412698-12.035104-3.367701-13.30605-2.709715-14.185071 9.55768-2.598174 36.271088-9.147334 71.712275-21.606087 105.95824-1.529843 4.205788-2.882654 8.522094-4.881171 12.503778-3.966335 7.90504-3.136433 14.860453 1.63115 22.400173 15.468296 24.466228 28.03859 50.448996 38.476313 77.441766 11.323906 29.284977 20.340257 59.272965 26.818809 90.007967 0.372483 1.76418 0.479931 3.582595 0.710175 5.376451-0.456395 0.367367-0.912789 0.735757-1.36816 1.103124-0.867764-1.37123-1.554402-2.904143-2.626827-4.087085-45.12985-49.77566-92.360548-97.41261-144.101979-140.386354-43.385113-36.034704-88.397283-69.741387-139.564639-94.254687-8.953929-4.2897-18.289552-7.785314-27.495214-11.532661-1.617847-0.659009-3.470031-0.74292-5.212722-1.091868-0.38681 0.428765-0.772596 0.859577-1.157359 1.288343 1.375324 1.543146 2.52552 3.3984 4.158716 4.586458 23.357987 16.990976 47.240931 33.296337 70.089311 50.943252 41.605583 32.136931 80.43903 67.581188 116.969015 105.284905 62.070684 64.063061 123.008568 129.225153 184.384427 193.960527 2.042519 2.153036 3.914146 4.549619 5.452175 7.082302 3.966335 6.531763 2.930749 13.524015-2.544963 19.062148-4.796236 4.849448-12.006452 5.735631-18.286482 1.896186-2.51324-1.535983-4.814656-3.560082-6.852058-5.702885-10.982122-11.561313-22.073738-23.034623-32.689517-34.930557-7.78122-8.717546-16.85283-15.282055-27.351951-20.316721-61.195757-29.345352-122.146944-59.174728-181.276646-92.567255-53.239552-30.065759-105.217367-62.137199-154.387229-98.54848-14.227026-10.534937-27.539216-22.305005-41.270962-33.509185 0.196475-0.544399 0.39295-1.087774 0.590448-1.633197 2.133593-0.332575 4.267187-0.927115 6.404873-0.951675 11.438517-0.135076 22.87908-0.068562 34.316573-0.24457 1.560542-0.023536 3.104711-1.011027 4.657067-1.554402-0.961908-1.280156-1.6465-3.070942-2.925632-3.76679-20.661575-11.215436-42.431392-19.839861-65.322751-24.987091-11.686157-2.626827-20.274766-8.058536-27.656897-17.420765-17.276479-21.917172-33.053814-44.561915-40.875966-71.751161-7.064906-24.562419-7.239891-49.113581 1.166569-73.474408 0.701988-2.033309 1.534959-4.025687 2.4017-5.996574 1.77032-4.022617 4.838192-5.331425 8.93244-3.856841 2.489704 0.895393 4.956895 1.936095 7.28287 3.192715 20.142759 10.883885 40.250726 21.833261 60.371996 32.760125 0.98749 0.535189 1.99954 1.026376 3.001357 1.538029 0.490164-0.223081 0.980327-0.446162 1.471514-0.668219-0.871857-2.536776-1.249457-5.40715-2.695389-7.557116-11.995195-17.824971-25.511024-34.394345-41.065278-49.282427-7.401574-7.085372-6.745634-8.886391 3.173273-12.062733 19.378349-6.204305 39.142485-6.637164 59.138912-4.376681 22.851451 2.582825 44.970214 8.31334 66.827011 15.251356 13.885242 4.408403 24.452925 13.189394 32.660864 24.902156 20.007683 28.553313 39.97341 57.138348 55.835679 88.316441 0.425695 0.839111 0.944512 1.63115 2.194992 3.773953 1.333368-28.511357-5.324262-54.483892-11.031241-81.06734 1.12052 0.442068 1.74269 0.574075 2.240017 0.900509 26.89965 17.685801 54.803163 33.878598 79.776951 54.416354 17.891486 14.715143 33.139771 31.591509 44.554752 51.820226 0.403183 0.712221 0.868787 1.388627 2.053776 3.273557 2.567475-8.196683 5.055133-15.390525 7.078209-22.714328 9.101285-32.955576 11.605316-66.603931 10.532891-100.651374-0.191358-6.077416 0.188288-12.32777 1.417279-18.268062 3.725858-18.003026 18.732643-24.111141 33.461089-20.764929 20.188808 4.586458 40.071647 10.553357 60.021002 16.161075 122.606409 34.462906 245.195422 68.991304 367.791597 103.501282 1.276063 0.360204 2.549056 0.730641 3.812839 1.133823 16.296151 5.212722 22.131043 12.561084 23.212678 29.513174 2.071172 32.463366 0.236384 64.714907-5.449106 96.744391-10.967796 61.792345-33.05279 119.772874-60.753689 175.747723-39.809681 80.447217-92.962252 150.736073-160.978345 209.55162-39.653115 34.287921-82.85301 62.801325-133.218094 78.741365-17.315364 5.478781-35.316344 9.247618-53.275367 12.023848-8.129144 1.257643-17.201777-0.824785-25.375947-3.089361-43.582611-12.07092-85.339644-29.112038-126.562511-47.543829-90.036619-40.257889-177.676655-85.286432-264.155239-132.624577-5.813403-3.183506-11.648294-6.423293-17.066701-10.216689-17.148565-12.004405-15.857153-38.324864 2.52552-48.352241 9.592472-5.231141 19.747763-9.428743 29.631878-14.131859 46.338375-22.037922 89.705068-48.958038 130.770346-79.655178 1.9934-1.489934 4.03899-2.920516 6.132674-4.264117 3.932566-2.526543 8.025791-3.013637 12.214183-0.606821C308.206012 542.154787 324.286246 551.421848 340.908832 560.994877L340.908832 560.994877z" p-id="1117" fill="#1296db"></path></svg>