<?xml version="1.0" standalone="no"?><!DOCTYPE svg PUBLIC "-//W3C//DTD SVG 1.1//EN" "http://www.w3.org/Graphics/SVG/1.1/DTD/svg11.dtd"><svg t="1545239014138" class="icon" style="" viewBox="0 0 1024 1024" version="1.1" xmlns="http://www.w3.org/2000/svg" p-id="1604" xmlns:xlink="http://www.w3.org/1999/xlink" width="21" height="21"><defs><style type="text/css"></style></defs><path d="M750.060419 467.713354l137.805576 0 0 51.201126-137.805576 0 0-51.201126ZM183.654298 64.340377 183.654298 144.897088 218.818169 134.028553 218.818169 99.504248 922.629753 99.504248 922.629753 548.2189 362.564038 548.2189 360.725156 583.380724 957.846836 583.380724 957.846836 64.340377ZM239.623008 361.262904c57.567113 0 104.240109-46.672996 104.240109-104.266715 0-57.541531-46.671972-104.213503-104.240109-104.213503s-104.240109 46.671972-104.240109 104.213503C135.382898 314.589908 182.055894 361.262904 239.623008 361.262904zM328.118528 845.672522 328.118528 660.049894 328.118528 642.573871 328.118528 618.863866 334.752622 618.863866 344.421842 430.471149 524.185019 337.340051 509.079996 308.197314 513.476119 315.869041 706.077695 205.582215 697.393919 190.290951 505.030773 300.417117 500.555855 291.733341 336.217996 376.926652 277.556968 376.926652 237.811756 423.01227 199.344652 376.926652 114.897332 392.5904 109.490182 579.972091 145.320225 579.972091 147.264507 618.863866 152.67268 618.863866 152.67268 642.573871 152.67268 660.049894 152.67268 845.672522 145.506467 845.672522 103.681896 854.729805 103.681896 893.25012 139.299091 893.25012 180.856579 886.482997 181.230086 893.25012 227.289098 893.25012 227.289098 850.309122 227.289098 845.672522 227.289098 660.049894 253.50211 660.049894 253.50211 845.672522 253.50211 850.309122 253.50211 893.25012 299.562145 893.25012 299.934628 886.482997 341.492116 893.25012 377.109312 893.25012 377.109312 854.729805 335.259158 845.672522Z" p-id="1605" fill="#1296db"></path></svg>